<?xml version="1.0" encoding="utf-8"?>
<!-- Generator: Adobe Illustrator 22.0.1, SVG Export Plug-In . SVG Version: 6.00 Build 0)  -->
<svg version="1.1" id="Camada_1" xmlns="http://www.w3.org/2000/svg" xmlns:xlink="http://www.w3.org/1999/xlink" x="0px" y="0px"
	 viewBox="0 0 464.7 164" style="enable-background:new 0 0 464.7 164;" xml:space="preserve">
<style type="text/css">
	.st0{display:none;}
	.st1{display:inline;fill:#C3C63B;}
	.st2{display:inline;}
	.st3{fill:#C3C63B;}
	.st4{display:inline;fill:none;}
	.st5{display:inline;fill:#FFFFFF;}
	.st6{font-family:'NotoSans';}
	.st7{font-size:17.0816px;}
	.st8{display:inline;fill:none;stroke:#FFFFFF;stroke-miterlimit:10;}
	.st9{display:none;fill:#FFFFFF;}
	.st10{display:none;fill:none;}
	.st11{font-size:17.0602px;}
	.st12{font-size:16.0591px;}
	.st13{fill:#EBEBEB;}
	.st14{fill:#FFFFFF;}
	.st15{fill:none;}
	.st16{font-size:16.9478px;}
	.st17{fill:none;stroke:#FFFFFF;stroke-miterlimit:10;}
	.st18{font-size:16.2805px;}
	.st19{font-size:18.3749px;}
	.st20{display:inline;fill:#F0BF26;}
	.st21{display:inline;fill:#EBEBEB;}
	.st22{stroke:#C3C63B;stroke-width:8;stroke-miterlimit:10;}
	.st23{font-size:18.2197px;}
	.st24{fill:none;stroke:#000000;stroke-miterlimit:10;}
	.st25{display:inline;fill:#050505;}
	.st26{fill:#070707;}
	.st27{fill:#050505;}
	.st28{font-size:16.1953px;}
	.st29{font-size:13.6899px;}
</style>
<g class="st0">
	<rect x="9.2" class="st1" width="115" height="115.6"/>
	<g class="st2">
		<rect x="16.7" y="8.5" width="100" height="99"/>
		<path class="st3" d="M38.5,31.1c0-0.3,0.7-0.6,1.1-0.6c3.1-0.1,7.6-0.2,12.4-0.2c13.3,0,18.5,7.5,18.5,17.1
			c0,12.5-8.8,17.9-19.7,17.9c-1.8,0-2.4-0.1-3.7-0.1v19c0,0.4-0.1,0.6-0.6,0.6h-7.3c-0.4,0-0.6-0.1-0.6-0.6V31.1H38.5z M47,57.3
			c1.1,0.1,2,0.1,3.9,0.1c5.6,0,10.9-2,10.9-9.9c0-6.3-3.8-9.4-10.2-9.4c-1.9,0-3.7,0.1-4.6,0.1L47,57.3L47,57.3z M88.2,51.4
			c-3.8,0-5.1,2-5.1,3.6c0,1.8,0.9,3,5.9,5.7c7.5,3.8,9.9,7.4,9.9,12.6c0,7.9-5.8,12.1-13.8,12.1c-4.2,0-7.8-0.9-9.8-2.1
			c-0.2,0-0.3-0.3-0.3-0.7v-7.3c0-0.5,0.2-0.6,0.6-0.4c3,2,6.5,2.9,9.6,2.9c3.8,0,5.4-1.6,5.4-3.9c0-1.8-1.1-3.4-5.9-5.9
			c-6.8-3.4-9.6-6.8-9.6-12.4C75,49.3,79.9,44,88.2,44c4.1,0,7,0.6,8.6,1.4c0.4,0.2,0.5,0.6,0.5,1v6.8c0,0.4-0.2,0.6-0.7,0.5
			C94.5,52.3,91.4,51.4,88.2,51.4L88.2,51.4z"/>
	</g>
</g>
<g class="st0">
	<rect x="1.3" y="139.4" class="st4" width="130.9" height="25.1"/>
	<text transform="matrix(1 0 0 1 14.3193 152.3877)" class="st5 st6 st7">PHOTOSHOP</text>
	<rect x="7.6" y="130.9" class="st8" width="117.6" height="29.1"/>
</g>
<polygon class="st9" points="210.4,20.6 222.6,45.5 250,49.4 230.2,68.8 234.9,96 210.4,83.2 185.9,96 190.6,68.8 170.8,49.4 
	198.1,45.5 "/>
<polygon class="st9" points="313.6,20.6 325.9,45.5 353.3,49.4 333.4,68.8 338.1,96 313.6,83.2 289.1,96 293.8,68.8 274,49.4 
	301.4,45.5 "/>
<polygon class="st10" points="418.4,20.6 430.6,45.5 458,49.4 438.2,68.8 442.9,96 418.4,83.2 393.9,96 398.5,68.8 378.7,49.4 
	406.1,45.5 "/>
<g class="st0">
	<rect x="8.5" y="1" class="st1" width="116.9" height="115.4"/>
	<g class="st2">
		<rect x="16.1" y="9.5" width="101.6" height="98.8"/>
	</g>
	<path class="st1" d="M50.2,85.3c0,0.5-0.1,0.7-0.7,0.7h-7.8c-0.5,0-0.7-0.2-0.7-0.7V31.5c0-0.5,0.3-0.7,0.7-0.7h7.9
		c0.4,0,0.6,0.2,0.6,0.6V85.3z M59.2,65.9c0-12,8.1-21.4,20.9-21.4c1.1,0,1.7,0,2.7,0.1V31.3c0-0.3,0.3-0.5,0.5-0.5h8.3
		c0.4,0,0.5,0.2,0.5,0.4v46.9c0,1.4,0,3.1,0.3,5.1c0,0.3-0.1,0.4-0.4,0.6c-4.4,2.1-9,3-13.4,3C67.3,86.8,59.2,79.9,59.2,65.9
		L59.2,65.9z M82.8,52.8c-0.8-0.3-1.8-0.5-3-0.5c-6.6,0-11.2,5-11.2,13.2c0,9.4,4.7,13.2,10.6,13.2c1.3,0,2.6-0.2,3.6-0.6V52.8
		L82.8,52.8z"/>
</g>
<g class="st0">
	<rect x="1" y="138.7" class="st4" width="132.9" height="25.1"/>
	<text transform="matrix(1.0171 0 0 1 26.1733 151.6504)" class="st5 st6 st11">INDESIGN</text>
	<rect x="7.4" y="130.2" class="st8" width="119.4" height="29.1"/>
</g>
<polygon class="st9" points="209.9,20.6 222.3,45.4 250.1,49.4 230,68.6 234.8,95.9 209.9,83 185,95.9 189.7,68.6 169.6,49.4 
	197.4,45.4 "/>
<polygon class="st9" points="314.7,20.6 327.2,45.4 355,49.4 334.9,68.6 339.6,95.9 314.7,83 289.9,95.9 294.6,68.6 274.5,49.4 
	302.3,45.4 "/>
<polygon class="st10" points="418.4,21.6 430.6,46.5 458,50.4 438.2,69.8 442.9,97 418.4,84.2 393.9,97 398.5,69.8 378.7,50.4 
	406.1,46.5 "/>
<g class="st0">
	<rect x="5.4" y="137.4" class="st4" width="123" height="23.6"/>
	<text transform="matrix(1 0 0 1 40.6162 149.5801)" class="st5 st6 st12">HTML5</text>
	<rect x="11.3" y="129.4" class="st8" width="110.5" height="27.4"/>
</g>
<g class="st0">
	<g class="st2">
		<polygon id="XMLID_6_" class="st3" points="24.3,107.5 14.9,2 118.3,2 108.8,107.5 66.5,119.3 		"/>
		<path d="M24.6,11l0,0.2h-0.2l8.1,90l34,9.6l34-9.6l8.1-90L24.6,11z M66.4,63.1L66.4,63.1L66.4,63.1L66.4,63.1L66.4,63.1z"/>
		<polygon points="66.8,96.7 66.9,96.7 66.8,96.8 66.6,96.8 66.6,96.7 66.5,96.7 66.4,96.7 66.4,96.7 66.5,96.7 66.5,96.7 
			66.5,96.7 66.6,96.7 66.6,96.7 66.8,96.6 		"/>
		<polygon class="st13" points="66.5,96.7 66.5,96.7 66.4,96.7 66.4,96.7 66.4,96.7 66.4,96.7 66.5,96.7 		"/>
		<polygon class="st14" points="66.8,96.6 66.8,96.7 66.6,96.7 66.6,96.7 66.5,96.7 66.4,96.7 66.4,96.7 66.5,96.7 66.5,96.7 
			66.5,96.7 66.6,96.7 66.6,96.7 		"/>
		<polygon points="66.6,96.7 66.8,96.6 66.8,96.8 66.6,96.8 66.6,96.7 66.5,96.7 66.4,96.7 66.4,96.7 66.5,96.7 66.5,96.7 
			66.5,96.7 66.6,96.7 		"/>
	</g>
	<g class="st2">
		<polygon class="st3" points="99.2,23.5 98.9,27 98.3,33.5 98.1,36.4 48.7,36.4 49.9,49.6 96.9,49.6 96.6,53.1 93.5,87 93.4,89.2 
			67,96.5 66.9,96.5 40.5,89.2 38.7,68.9 51.6,68.9 52.5,79.2 66.9,83.1 66.9,83.1 67,83.1 81.3,79.2 82.8,62.5 38.1,62.5 34.9,27 
			34.6,23.5 		"/>
	</g>
</g>
<g class="st0">
	<g class="st2">
		<rect x="10.9" y="135.7" class="st15" width="122.6" height="23.5"/>
		<text transform="matrix(1 0 0 1 52.8589 148.6162)" class="st14 st6 st16">CSS3</text>
		<rect x="16.7" y="129.2" class="st17" width="110.2" height="27.3"/>
	</g>
	<g class="st2">
		<g>
			<polygon id="XMLID_3_" class="st3" points="26.2,107.4 16.8,2.2 119.9,2.2 110.5,107.3 68.3,119 			"/>
			<path d="M26.5,11.1l0,0.2h-0.2l8.1,89.7l33.9,9.5l33.9-9.5l8.1-89.7L26.5,11.1z M68.2,63L68.2,63L68.2,63L68.2,63L68.2,63z"/>
			<polygon points="68.5,96.6 68.6,96.6 68.5,96.6 68.4,96.6 68.4,96.5 68.3,96.6 68.2,96.6 68.2,96.6 68.2,96.6 68.3,96.6 
				68.3,96.6 68.4,96.5 68.4,96.5 68.5,96.5 			"/>
			<polygon class="st13" points="68.3,96.6 68.3,96.6 68.2,96.6 68.2,96.6 68.2,96.6 68.2,96.6 68.2,96.6 			"/>
			<polygon class="st14" points="68.5,96.5 68.5,96.5 68.4,96.5 68.4,96.5 68.3,96.6 68.2,96.6 68.2,96.6 68.2,96.6 68.3,96.6 
				68.3,96.6 68.4,96.5 68.4,96.5 			"/>
		</g>
		<g id="XMLID_2_">
			<polygon class="st3" points="69.3,78.4 69.3,78.4 55.1,75.8 			"/>
			<polygon class="st3" points="98.8,37.6 73.2,48.9 97.8,48.9 95.1,83.7 70.4,90.3 69.3,90.1 44.8,84.1 43.2,66.5 54.5,66.5 
				55.1,75.8 69.3,78.4 70,78.6 83.7,74.4 84.3,59.4 42.2,59.4 41.4,48.4 69.3,36.1 40.1,35.9 39,25.3 99.5,25.3 			"/>
		</g>
	</g>
</g>
<g class="st0">
	<g class="st2">
		<rect x="9.1" y="134.5" class="st15" width="124.7" height="24"/>
		<text transform="matrix(1 0 0 1 27.0498 146.8818)" class="st14 st6 st18">JAVASCRIPT</text>
		<rect x="15.1" y="126.4" class="st17" width="112" height="27.8"/>
	</g>
	<g class="st2">
		<polygon id="XMLID_17_" class="st3" points="26,107.6 16.6,2 120,2 110.6,107.6 68.2,119.3 		"/>
		<path d="M26.3,11l0,0.2h-0.2l8.1,90l34,9.6l34-9.6l8.1-90L26.3,11z M68.2,63.1L68.2,63.1L68.2,63.1L68.2,63.1L68.2,63.1z"/>
		<polygon class="st3" points="97.8,50.6 97.4,54.1 94.4,88.2 94.2,90.4 67.8,97.7 67.7,97.7 67.7,97.7 67.7,97.7 67.7,97.7 
			67.6,97.7 67.6,97.7 41.2,90.4 39.3,70.1 52.3,70.1 53.2,80.4 67.6,84.3 67.6,84.3 67.7,84.3 67.7,84.3 67.7,84.3 67.7,84.3 
			67.7,84.3 67.8,84.3 82.1,80.4 83.6,63.6 67.8,63.6 67.8,63.6 39.4,63.6 39.7,60.1 42.7,26 43.7,16.5 95.3,16.5 95.9,23.6 
			97.3,38.5 97.8,44.1 84.8,44.1 84.3,38.5 83.6,30.8 77,30.4 70.4,30 69.5,29.9 69.4,29.9 69.4,29.9 68,30 67.8,30 67.6,30 
			55.4,30.3 53.5,50.6 67.6,50.6 67.6,50.6 		"/>
	</g>
</g>
<g class="st0">
	<rect x="4.2" y="130.2" class="st4" width="140.8" height="27"/>
	<text transform="matrix(1 0 0 1 56.6405 144.1429)" class="st5 st6 st19">PHP</text>
	<rect x="10.9" y="121" class="st8" width="126.5" height="31.3"/>
</g>
<g class="st0">
	<rect x="77.9" y="50" class="st20" width="1.5" height="0"/>
	<rect x="77.8" y="50" class="st21" width="1.6" height="0"/>
	<g id="XMLID_7_" class="st2">
		<path id="XMLID_16_" class="st22" d="M77.1,107.6c39.7,0,71.9-21.3,71.9-47.5s-32.2-47.5-71.9-47.5C37.5,12.5,5.3,33.8,5.3,60
			S37.5,107.6,77.1,107.6"/>
		<path id="XMLID_25_" class="st3" d="M48.1,46c3.3,0,5.4,0.8,6.5,2.4c1.1,1.6,1.3,4.3,0.8,8.1c-0.6,4-1.7,6.8-3.4,8.5
			c-1.7,1.7-4.3,2.6-7.7,2.6H39L42.2,46H48.1L48.1,46z M27.2,89.3h8.6l2-13.7h7.4c3.2,0,5.9-0.4,8-1.3c2.1-0.9,4-2.4,5.7-4.5
			c1.4-1.7,2.6-3.6,3.5-5.7c0.9-2.1,1.5-4.4,1.9-6.9c0.9-6.1,0.2-10.8-2.1-14.3c-2.3-3.4-5.9-5.1-10.9-5.1H34.8L27.2,89.3"/>
		<path id="XMLID_26_" class="st3" d="M70.6,24.2h8.5l-2,13.7h7.6c4.8,0,8.1,1.1,9.9,3.3c1.8,2.2,2.4,5.7,1.6,10.6l-3.6,23.9h-8.7
			l3.4-22.8c0.4-2.6,0.2-4.4-0.4-5.3c-0.7-0.9-2.1-1.4-4.3-1.4h-6.8l-4.4,29.5h-8.5L70.6,24.2"/>
		<path id="XMLID_29_" class="st3" d="M115.1,46c3.3,0,5.4,0.8,6.5,2.4c1.1,1.6,1.3,4.3,0.8,8.1c-0.6,4-1.7,6.8-3.4,8.5
			c-1.7,1.7-4.3,2.6-7.7,2.6H106l3.2-21.5H115.1L115.1,46z M94.2,89.3h8.6l2-13.7h7.4c3.2,0,5.9-0.4,8-1.3c2.1-0.9,4-2.4,5.7-4.5
			c1.4-1.7,2.6-3.6,3.5-5.7c0.9-2.1,1.5-4.4,1.9-6.9c0.9-6.1,0.2-10.8-2.1-14.3c-2.3-3.4-5.9-5.1-10.9-5.1h-16.5L94.2,89.3"/>
	</g>
</g>
<g class="st0">
	<g class="st2">
		<rect x="1" y="136.4" class="st15" width="131.8" height="25.3"/>
		<text transform="matrix(1 0 0 1 23.5234 150.2717)" class="st6 st23">PREMIERE</text>
		<rect x="7.3" y="129.3" class="st24" width="118.4" height="29.4"/>
	</g>
	<polygon class="st25" points="210.6,17.3 222.9,42.3 250.5,46.3 230.6,65.8 235.3,93.2 210.6,80.3 185.9,93.2 190.6,65.8 
		170.7,46.3 198.3,42.3 	"/>
	<polygon class="st25" points="309,17.3 321.4,42.3 349,46.3 329,65.8 333.7,93.2 309,80.3 284.3,93.2 289.1,65.8 269.1,46.3 
		296.7,42.3 	"/>
	<polygon class="st25" points="414.5,17.3 426.9,42.3 454.5,46.3 434.5,65.8 439.2,93.2 414.5,80.3 389.9,93.2 394.6,65.8 
		374.6,46.3 402.2,42.3 	"/>
	<g class="st2">
		<g>
			<g>
				<path class="st26" d="M8.1-3H124v116.4H8.1V-3z"/>
			</g>
		</g>
		<rect x="15.7" y="6.1" class="st3" width="100.2" height="99.7"/>
		<g id="XMLID_13_">
			<g>
				<path id="XMLID_46_" class="st26" d="M39.9,27.3c0-0.4,0.1-0.6,0.4-0.6c2.6-0.1,7.7-0.2,13-0.2c13.4,0,18.6,7.8,18.6,17.1
					c0,12.7-9.4,17.5-19.5,17.5c-1.9,0-3.8,0-4.3,0v18.1c0,0.5-0.1,0.6-0.5,0.6h-7.3c-0.3,0-0.5-0.2-0.5-0.6V27.3z M48.1,53.4
					c0.5,0.1,1.6,0.2,4.5,0.2c5.4,0,10.6-1.5,10.6-9.5c0-6.4-3.5-9.7-9.9-9.7c-2.7,0-4.6,0.1-5.1,0.2V53.4z"/>
			</g>
		</g>
		<g id="XMLID_1_">
			<g>
				<path id="XMLID_36_" class="st26" d="M96.2,39.7c0.3,0,0.6,0,0.9,0.1c0.4,0.1,0.4,0.2,0.4,0.8v6.9c0,0.4-0.1,0.6-0.6,0.6
					c-4.1-0.2-6-0.3-9,0.9v30c0,0.5-0.1,0.6-0.6,0.6h-7.5c-0.4,0-0.6-0.2-0.6-0.6V52.1c0-3.5-0.1-6.2-0.4-8.8
					c-0.1-0.3,0.1-0.5,0.4-0.5C79.4,42.9,86.4,40.3,96.2,39.7z"/>
			</g>
		</g>
	</g>
</g>
<g class="st0">
	<g class="st2">
		<rect x="1" y="136.4" class="st15" width="131.8" height="25.3"/>
		<text transform="matrix(1 0 0 1 18.437 148.7324)" class="st27 st6 st28">SONY VEGAS</text>
		<rect x="7.3" y="127.8" class="st24" width="118.4" height="29.4"/>
	</g>
	<polygon class="st25" points="210.6,15.4 222.9,40.4 250.5,44.5 230.6,63.9 235.3,91.4 210.6,78.4 185.9,91.4 190.6,63.9 
		170.7,44.5 198.3,40.4 	"/>
	<polygon class="st25" points="309,15.4 321.4,40.4 349,44.5 329,63.9 333.7,91.4 309,78.4 284.3,91.4 289.1,63.9 269.1,44.5 
		296.7,40.4 	"/>
	<polygon class="st25" points="414.5,15.4 426.9,40.4 454.5,44.5 434.5,63.9 439.2,91.4 414.5,78.4 389.9,91.4 394.6,63.9 
		374.6,44.5 402.2,40.4 	"/>
	<g class="st2">
		<g>
			<g>
				<path class="st26" d="M8.1-3H124v116.4H8.1V-3z"/>
			</g>
		</g>
		<rect x="15.7" y="6.1" class="st3" width="100.2" height="99.7"/>
		<g>
			<path class="st26" d="M41.4,53.3c0-8.3,0-16.6,0-24.8c0-1.1,0-2.2,0.3-3.3c0.6-2.3,2.3-3.3,4.6-2.9c2.3,0.4,4.3,1.6,6.3,2.7
				c4.7,2.6,9.5,5.2,14.2,7.9c9.3,5.1,18.6,10.3,27.9,15.4c1.6,0.9,3,2.1,3.4,4.1c0.5,2.5-0.3,4.4-2.3,5.9c-1.8,1.3-3.9,2.2-5.8,3.3
				c-13.6,7.3-27.3,14.7-41,22c-1.2,0.6-2.4,1.2-3.8,0.9c-2.1-0.4-3.8-2.3-3.9-4.5c-0.1-2.3,0-4.7,0-7
				C41.4,66.4,41.4,59.9,41.4,53.3z"/>
		</g>
	</g>
</g>
<g>
	<g>
		<rect x="-0.2" y="138.6" class="st15" width="132.1" height="25.4"/>
		<text transform="matrix(1 0 0 1 17.687 149.043)" class="st6 st29">AFTER EFFECTS</text>
		<rect x="6.2" y="130" class="st24" width="118.6" height="29.4"/>
	</g>
	<polygon points="87.2,98.7 87.4,98.7 87.2,98.7 87.1,98.7 87.1,98.6 87,98.7 86.9,98.7 86.9,98.7 86.9,98.7 87,98.7 87,98.7 
		87.1,98.6 87.1,98.6 87.2,98.6 	"/>
	<polygon class="st13" points="87,98.7 87,98.7 86.9,98.7 86.9,98.7 86.9,98.7 86.9,98.7 86.9,98.7 	"/>
	<polygon class="st14" points="87.2,98.6 87.2,98.6 87.1,98.6 87.1,98.6 87,98.7 86.9,98.7 86.9,98.7 86.9,98.7 87,98.7 87,98.7 
		87.1,98.6 87.1,98.6 	"/>
	<polygon points="87.1,98.6 87.2,98.6 87.2,98.7 87.1,98.7 87.1,98.6 87,98.7 86.9,98.7 86.9,98.7 86.9,98.7 87,98.7 87,98.7 
		87.1,98.6 	"/>
	<polygon class="st27" points="209.8,16.6 222.2,41.6 249.8,45.7 229.8,65.1 234.5,92.7 209.8,79.7 185.1,92.7 189.8,65.1 
		169.8,45.7 197.5,41.6 	"/>
	<polygon class="st27" points="308.4,16.6 320.8,41.6 348.4,45.7 328.4,65.1 333.2,92.7 308.4,79.7 283.7,92.7 288.4,65.1 
		268.4,45.7 296.1,41.6 	"/>
	<g>
		<g>
			<g>
				<path class="st26" d="M6.9,0H123v116.6H6.9V0z"/>
			</g>
		</g>
		<rect x="14.5" y="9.1" class="st3" width="100.4" height="99.9"/>
		<g id="XMLID_14_">
			<path id="XMLID_15_" class="st26" d="M40.1,67.4l-4.2,14.3c-0.1,0.5-0.3,0.7-0.7,0.7h-7c-0.5,0-0.6-0.2-0.5-0.8
				C31.4,69,37.7,48,42.1,33.8c0.2-0.8,0.4-1.6,0.5-4.5c0-0.3,0.2-0.5,0.4-0.5h9.5c0.3,0,0.4,0.1,0.5,0.4
				C58.1,46,63.7,64.6,68.9,81.6c0.1,0.5,0,0.7-0.4,0.7h-7.7c-0.3,0-0.5-0.2-0.6-0.5l-4.4-14.5H40.1z M53.9,59.4
				c-1.4-5.5-4.7-16.6-6.1-22.3h-0.1c-1,5.4-3.8,14.7-5.9,22.3H53.9z"/>
		</g>
		<g id="XMLID_4_">
			<path id="XMLID_5_" class="st26" d="M79.5,64.3c0.1,6.1,3.4,10.5,10.5,10.5c2.6,0,5.7-0.5,8.8-2c0.2-0.1,0.4,0,0.4,0.4v6.5
				c0,0.6-0.1,0.7-0.4,0.9c-2.7,1.6-6,2.2-10.5,2.3c-12.8,0-17.4-10-17.4-20.2c0-11.6,6-20.7,16.5-20.7c10.3,0,14.4,9.1,14.4,16.6
				c0,3.5-0.4,5.1-0.6,5.3c-0.8,0.4-3.5,0.5-7.4,0.5H79.5z M90.8,58.1c2.6,0,3-0.3,3.1-0.6c0-0.2,0-0.6,0-0.9c0-2.4-1.4-7.7-6.8-7.7
				c-4.6,0-6.9,4-7.5,9.2H90.8z"/>
		</g>
	</g>
</g>
</svg>
