<?xml version="1.0" encoding="utf-8"?>
<!-- Generator: Adobe Illustrator 22.0.1, SVG Export Plug-In . SVG Version: 6.00 Build 0)  -->
<svg version="1.1" id="Camada_1" xmlns="http://www.w3.org/2000/svg" xmlns:xlink="http://www.w3.org/1999/xlink" x="0px" y="0px"
	 viewBox="0 0 464.7 164" style="enable-background:new 0 0 464.7 164;" xml:space="preserve">
<style type="text/css">
	.st0{fill:#C3C63B;}
	.st1{fill:none;}
	.st2{fill:#FFFFFF;}
	.st3{font-family:'NotoSans';}
	.st4{font-size:18.4236px;}
	.st5{fill:none;stroke:#FFFFFF;stroke-miterlimit:10;}
</style>
<g>
	<path class="st0" d="M7.5,0h117.2v117.7H7.5V0z"/>
	<path d="M49.6,60.8h10.6l-5.3-21L49.6,60.8z M15.2,9.2v101h101.3V9.2H15.2z M66,83.8l-3.9-13.7H47.8L44,83.8h-9.8L48,35.5v-5.3
		h13.1l15.7,53.6H66z M92,83.8H81.5V43.1H92V83.8z M86.8,38.2c-3,0-5.5-2.5-5.5-5.5c0-3.1,2.5-5.6,5.5-5.6c3,0,5.5,2.5,5.5,5.6
		C92.3,35.7,89.8,38.2,86.8,38.2z"/>
</g>
<g>
	<rect y="138.4" class="st1" width="133.3" height="25.6"/>
	<text transform="matrix(1 0 0 1 12.1338 152.4033)" class="st2 st3 st4">ILUSTRATOR</text>
	<rect x="6.4" y="131.2" class="st5" width="119.8" height="29.7"/>
</g>
<polygon class="st2" points="212.5,17.9 224.9,43.2 252.8,47.3 232.6,67 237.4,94.7 212.5,81.6 187.5,94.7 192.3,67 172.1,47.3 
	200,43.2 "/>
<polygon class="st2" points="317.6,17.9 330.1,43.2 358,47.3 337.8,67 342.6,94.7 317.6,81.6 292.7,94.7 297.4,67 277.2,47.3 
	305.1,43.2 "/>
<polygon class="st2" points="424.3,17.9 436.8,43.2 464.7,47.3 444.5,67 449.3,94.7 424.3,81.6 399.4,94.7 404.1,67 383.9,47.3 
	411.8,43.2 "/>
</svg>
