<?xml version="1.0" encoding="utf-8"?>
<!-- Generator: Adobe Illustrator 22.0.1, SVG Export Plug-In . SVG Version: 6.00 Build 0)  -->
<svg version="1.1" id="Camada_1" xmlns="http://www.w3.org/2000/svg" xmlns:xlink="http://www.w3.org/1999/xlink" x="0px" y="0px"
	 viewBox="0 0 464.7 164" style="enable-background:new 0 0 464.7 164;" xml:space="preserve">
<style type="text/css">
	.st0{display:none;stroke:#000000;stroke-miterlimit:10;}
	.st1{display:none;}
	.st2{display:inline;}
	.st3{fill:#C3C63B;}
	.st4{fill:none;}
	.st5{fill:#FFFFFF;}
	.st6{font-family:'NotoSans';}
	.st7{font-size:17.0816px;}
	.st8{fill:none;stroke:#FFFFFF;stroke-miterlimit:10;}
	.st9{display:inline;fill:#FFFFFF;}
	.st10{font-size:17.0602px;}
</style>
<rect x="-8.5" y="-8.5" class="st0" width="496" height="188"/>
<g class="st1">
	<g class="st2">
		<rect x="9.2" y="0" class="st3" width="115" height="115.6"/>
		<g>
			<rect x="16.7" y="8.5" width="100" height="99"/>
			<path class="st3" d="M38.5,31.1c0-0.3,0.7-0.6,1.1-0.6c3.1-0.1,7.6-0.2,12.4-0.2c13.3,0,18.5,7.5,18.5,17.1
				c0,12.5-8.8,17.9-19.7,17.9c-1.8,0-2.4-0.1-3.7-0.1v19c0,0.4-0.1,0.6-0.6,0.6h-7.3c-0.4,0-0.6-0.1-0.6-0.6V31.1L38.5,31.1z
				 M47,57.3c1.1,0.1,2,0.1,3.9,0.1c5.6,0,10.9-2,10.9-9.9c0-6.3-3.8-9.4-10.2-9.4c-1.9,0-3.7,0.1-4.6,0.1L47,57.3L47,57.3z
				 M88.2,51.4c-3.8,0-5.1,2-5.1,3.6c0,1.8,0.9,3,5.9,5.7c7.5,3.8,9.9,7.4,9.9,12.6c0,7.9-5.8,12.1-13.8,12.1
				c-4.2,0-7.8-0.9-9.8-2.1C75.1,83.3,75,83,75,82.6v-7.3c0-0.5,0.2-0.6,0.6-0.4c3,2,6.5,2.9,9.6,2.9c3.8,0,5.4-1.6,5.4-3.9
				c0-1.8-1.1-3.4-5.9-5.9c-6.8-3.4-9.6-6.8-9.6-12.4C75,49.3,79.9,44,88.2,44c4.1,0,7,0.6,8.6,1.4c0.4,0.2,0.5,0.6,0.5,1v6.8
				c0,0.4-0.2,0.6-0.7,0.5C94.5,52.3,91.4,51.4,88.2,51.4L88.2,51.4z"/>
		</g>
	</g>
	<g class="st2">
		<rect x="1.3" y="139.4" class="st4" width="130.9" height="25.1"/>
		<text transform="matrix(1 0 0 1 14.3193 152.3877)" class="st5 st6 st7">PHOTOSHOP</text>
		<rect x="7.6" y="130.9" class="st8" width="117.6" height="29.1"/>
	</g>
	<polygon class="st9" points="210.4,20.6 222.6,45.5 250,49.4 230.2,68.8 234.9,96 210.4,83.2 185.9,96 190.6,68.8 170.8,49.4 
		198.1,45.5 	"/>
	<polygon class="st9" points="313.6,20.6 325.9,45.5 353.3,49.4 333.4,68.8 338.1,96 313.6,83.2 289.1,96 293.8,68.8 274,49.4 
		301.4,45.5 	"/>
	<polygon class="st9" points="418.4,20.6 430.6,45.5 458,49.4 438.2,68.8 442.9,96 418.4,83.2 393.9,96 398.5,68.8 378.7,49.4 
		406.1,45.5 	"/>
</g>
<g>
	<rect x="8.5" y="1" class="st3" width="116.9" height="115.4"/>
	<g>
		<rect x="16.1" y="9.5" width="101.6" height="98.8"/>
	</g>
	<path class="st3" d="M50.2,85.3c0,0.5-0.1,0.7-0.7,0.7h-7.8c-0.5,0-0.7-0.2-0.7-0.7V31.5c0-0.5,0.3-0.7,0.7-0.7h7.9
		c0.4,0,0.6,0.2,0.6,0.6V85.3z M59.2,65.9c0-12,8.1-21.4,20.9-21.4c1.1,0,1.7,0,2.7,0.1V31.3c0-0.3,0.3-0.5,0.5-0.5h8.3
		c0.4,0,0.5,0.2,0.5,0.4v46.9c0,1.4,0,3.1,0.3,5.1c0,0.3-0.1,0.4-0.4,0.6c-4.4,2.1-9,3-13.4,3C67.3,86.8,59.2,79.9,59.2,65.9
		L59.2,65.9z M82.8,52.8c-0.8-0.3-1.8-0.5-3-0.5c-6.6,0-11.2,5-11.2,13.2c0,9.4,4.7,13.2,10.6,13.2c1.3,0,2.6-0.2,3.6-0.6L82.8,52.8
		L82.8,52.8z"/>
</g>
<g>
	<rect x="1" y="138.7" class="st4" width="132.9" height="25.1"/>
	<text transform="matrix(1.0171 0 0 1 26.1733 151.6504)" class="st5 st6 st10">INDESIGN</text>
	<rect x="7.4" y="130.2" class="st8" width="119.4" height="29.1"/>
</g>
<polygon class="st5" points="209.9,20.6 222.3,45.4 250.1,49.4 230,68.6 234.8,95.9 209.9,83 185,95.9 189.7,68.6 169.6,49.4 
	197.4,45.4 "/>
<polygon class="st5" points="314.7,20.6 327.2,45.4 355,49.4 334.9,68.6 339.6,95.9 314.7,83 289.9,95.9 294.6,68.6 274.5,49.4 
	302.3,45.4 "/>
<polygon class="st4" points="418.4,21.6 430.6,46.5 458,50.4 438.2,69.8 442.9,97 418.4,84.2 393.9,97 398.5,69.8 378.7,50.4 
	406.1,46.5 "/>
</svg>
