<?xml version="1.0" encoding="utf-8"?>
<!-- Generator: Adobe Illustrator 22.0.1, SVG Export Plug-In . SVG Version: 6.00 Build 0)  -->
<svg version="1.1" id="Camada_1" xmlns="http://www.w3.org/2000/svg" xmlns:xlink="http://www.w3.org/1999/xlink" x="0px" y="0px"
	 viewBox="0 0 464.7 164" style="enable-background:new 0 0 464.7 164;" xml:space="preserve">
<style type="text/css">
	.st0{display:none;stroke:#000000;stroke-miterlimit:10;}
	.st1{display:none;}
	.st2{display:inline;fill:#C3C63B;}
	.st3{display:inline;}
	.st4{fill:#C3C63B;}
	.st5{display:inline;fill:none;}
	.st6{display:inline;fill:#FFFFFF;}
	.st7{font-family:'NotoSans';}
	.st8{font-size:17.0816px;}
	.st9{display:inline;fill:none;stroke:#FFFFFF;stroke-miterlimit:10;}
	.st10{fill:#FFFFFF;}
	.st11{fill:none;}
	.st12{font-size:17.0602px;}
	.st13{display:none;fill:none;}
	.st14{font-size:16.0591px;}
	.st15{fill:#EBEBEB;}
	.st16{font-size:16.9478px;}
	.st17{fill:none;stroke:#FFFFFF;stroke-miterlimit:10;}
	.st18{font-size:16.2805px;}
</style>
<rect x="-8.5" y="-8.5" class="st0" width="496" height="188"/>
<g class="st1">
	<rect x="9.2" class="st2" width="115" height="115.6"/>
	<g class="st3">
		<rect x="16.7" y="8.5" width="100" height="99"/>
		<path class="st4" d="M38.5,31.1c0-0.3,0.7-0.6,1.1-0.6c3.1-0.1,7.6-0.2,12.4-0.2c13.3,0,18.5,7.5,18.5,17.1
			c0,12.5-8.8,17.9-19.7,17.9c-1.8,0-2.4-0.1-3.7-0.1v19c0,0.4-0.1,0.6-0.6,0.6h-7.3c-0.4,0-0.6-0.1-0.6-0.6V31.1H38.5z M47,57.3
			c1.1,0.1,2,0.1,3.9,0.1c5.6,0,10.9-2,10.9-9.9c0-6.3-3.8-9.4-10.2-9.4c-1.9,0-3.7,0.1-4.6,0.1L47,57.3L47,57.3z M88.2,51.4
			c-3.8,0-5.1,2-5.1,3.6c0,1.8,0.9,3,5.9,5.7c7.5,3.8,9.9,7.4,9.9,12.6c0,7.9-5.8,12.1-13.8,12.1c-4.2,0-7.8-0.9-9.8-2.1
			c-0.2,0-0.3-0.3-0.3-0.7v-7.3c0-0.5,0.2-0.6,0.6-0.4c3,2,6.5,2.9,9.6,2.9c3.8,0,5.4-1.6,5.4-3.9c0-1.8-1.1-3.4-5.9-5.9
			c-6.8-3.4-9.6-6.8-9.6-12.4C75,49.3,79.9,44,88.2,44c4.1,0,7,0.6,8.6,1.4c0.4,0.2,0.5,0.6,0.5,1v6.8c0,0.4-0.2,0.6-0.7,0.5
			C94.5,52.3,91.4,51.4,88.2,51.4L88.2,51.4z"/>
	</g>
</g>
<g class="st1">
	<rect x="1.3" y="139.4" class="st5" width="130.9" height="25.1"/>
	<text transform="matrix(1 0 0 1 14.3193 152.3877)" class="st6 st7 st8">PHOTOSHOP</text>
	<rect x="7.6" y="130.9" class="st9" width="117.6" height="29.1"/>
</g>
<polygon class="st10" points="210.4,20.6 222.6,45.5 250,49.4 230.2,68.8 234.9,96 210.4,83.2 185.9,96 190.6,68.8 170.8,49.4 
	198.1,45.5 "/>
<polygon class="st10" points="313.6,20.6 325.9,45.5 353.3,49.4 333.4,68.8 338.1,96 313.6,83.2 289.1,96 293.8,68.8 274,49.4 
	301.4,45.5 "/>
<polygon class="st11" points="418.4,20.6 430.6,45.5 458,49.4 438.2,68.8 442.9,96 418.4,83.2 393.9,96 398.5,68.8 378.7,49.4 
	406.1,45.5 "/>
<g class="st1">
	<rect x="8.5" y="1" class="st2" width="116.9" height="115.4"/>
	<g class="st3">
		<rect x="16.1" y="9.5" width="101.6" height="98.8"/>
	</g>
	<path class="st2" d="M50.2,85.3c0,0.5-0.1,0.7-0.7,0.7h-7.8c-0.5,0-0.7-0.2-0.7-0.7V31.5c0-0.5,0.3-0.7,0.7-0.7h7.9
		c0.4,0,0.6,0.2,0.6,0.6V85.3z M59.2,65.9c0-12,8.1-21.4,20.9-21.4c1.1,0,1.7,0,2.7,0.1V31.3c0-0.3,0.3-0.5,0.5-0.5h8.3
		c0.4,0,0.5,0.2,0.5,0.4v46.9c0,1.4,0,3.1,0.3,5.1c0,0.3-0.1,0.4-0.4,0.6c-4.4,2.1-9,3-13.4,3C67.3,86.8,59.2,79.9,59.2,65.9
		L59.2,65.9z M82.8,52.8c-0.8-0.3-1.8-0.5-3-0.5c-6.6,0-11.2,5-11.2,13.2c0,9.4,4.7,13.2,10.6,13.2c1.3,0,2.6-0.2,3.6-0.6V52.8
		L82.8,52.8z"/>
</g>
<g class="st1">
	<rect x="1" y="138.7" class="st5" width="132.9" height="25.1"/>
	<text transform="matrix(1.0171 0 0 1 26.1733 151.6504)" class="st6 st7 st12">INDESIGN</text>
	<rect x="7.4" y="130.2" class="st9" width="119.4" height="29.1"/>
</g>
<polygon class="st10" points="209.9,20.6 222.3,45.4 250.1,49.4 230,68.6 234.8,95.9 209.9,83 185,95.9 189.7,68.6 169.6,49.4 
	197.4,45.4 "/>
<polygon class="st10" points="314.7,20.6 327.2,45.4 355,49.4 334.9,68.6 339.6,95.9 314.7,83 289.9,95.9 294.6,68.6 274.5,49.4 
	302.3,45.4 "/>
<polygon class="st13" points="418.4,21.6 430.6,46.5 458,50.4 438.2,69.8 442.9,97 418.4,84.2 393.9,97 398.5,69.8 378.7,50.4 
	406.1,46.5 "/>
<g class="st1">
	<rect x="5.4" y="137.4" class="st5" width="123" height="23.6"/>
	<text transform="matrix(1 0 0 1 40.6162 149.5801)" class="st6 st7 st14">HTML5</text>
	<rect x="11.3" y="129.4" class="st9" width="110.5" height="27.4"/>
</g>
<g class="st1">
	<g class="st3">
		<polygon id="XMLID_6_" class="st4" points="24.3,107.5 14.9,2 118.3,2 108.8,107.5 66.5,119.3 		"/>
		<path d="M24.6,11l0,0.2h-0.2l8.1,90l34,9.6l34-9.6l8.1-90L24.6,11z M66.4,63.1L66.4,63.1L66.4,63.1L66.4,63.1L66.4,63.1z"/>
		<polygon points="66.8,96.7 66.9,96.7 66.8,96.8 66.6,96.8 66.6,96.7 66.5,96.7 66.4,96.7 66.4,96.7 66.5,96.7 66.5,96.7 
			66.5,96.7 66.6,96.7 66.6,96.7 66.8,96.6 		"/>
		<polygon class="st15" points="66.5,96.7 66.5,96.7 66.4,96.7 66.4,96.7 66.4,96.7 66.4,96.7 66.5,96.7 		"/>
		<polygon class="st10" points="66.8,96.6 66.8,96.7 66.6,96.7 66.6,96.7 66.5,96.7 66.4,96.7 66.4,96.7 66.5,96.7 66.5,96.7 
			66.5,96.7 66.6,96.7 66.6,96.7 		"/>
		<polygon points="66.6,96.7 66.8,96.6 66.8,96.8 66.6,96.8 66.6,96.7 66.5,96.7 66.4,96.7 66.4,96.7 66.5,96.7 66.5,96.7 
			66.5,96.7 66.6,96.7 		"/>
	</g>
	<g class="st3">
		<polygon class="st4" points="99.2,23.5 98.9,27 98.3,33.5 98.1,36.4 48.7,36.4 49.9,49.6 96.9,49.6 96.6,53.1 93.5,87 93.4,89.2 
			67,96.5 66.9,96.5 40.5,89.2 38.7,68.9 51.6,68.9 52.5,79.2 66.9,83.1 66.9,83.1 67,83.1 81.3,79.2 82.8,62.5 38.1,62.5 34.9,27 
			34.6,23.5 		"/>
	</g>
</g>
<g class="st1">
	<g class="st3">
		<rect x="10.9" y="135.7" class="st11" width="122.6" height="23.5"/>
		<text transform="matrix(1 0 0 1 52.8589 148.6162)" class="st10 st7 st16">CSS3</text>
		<rect x="16.7" y="129.2" class="st17" width="110.2" height="27.3"/>
	</g>
	<g class="st3">
		<g>
			<polygon id="XMLID_3_" class="st4" points="26.2,107.4 16.8,2.2 119.9,2.2 110.5,107.3 68.3,119 			"/>
			<path d="M26.5,11.1l0,0.2h-0.2l8.1,89.7l33.9,9.5l33.9-9.5l8.1-89.7L26.5,11.1z M68.2,63L68.2,63L68.2,63L68.2,63L68.2,63z"/>
			<polygon points="68.5,96.6 68.6,96.6 68.5,96.6 68.4,96.6 68.4,96.5 68.3,96.6 68.2,96.6 68.2,96.6 68.2,96.6 68.3,96.6 
				68.3,96.6 68.4,96.5 68.4,96.5 68.5,96.5 			"/>
			<polygon class="st15" points="68.3,96.6 68.3,96.6 68.2,96.6 68.2,96.6 68.2,96.6 68.2,96.6 68.2,96.6 			"/>
			<polygon class="st10" points="68.5,96.5 68.5,96.5 68.4,96.5 68.4,96.5 68.3,96.6 68.2,96.6 68.2,96.6 68.2,96.6 68.3,96.6 
				68.3,96.6 68.4,96.5 68.4,96.5 			"/>
		</g>
		<g id="XMLID_2_">
			<polygon class="st4" points="69.3,78.4 69.3,78.4 55.1,75.8 			"/>
			<polygon class="st4" points="98.8,37.6 73.2,48.9 97.8,48.9 95.1,83.7 70.4,90.3 69.3,90.1 44.8,84.1 43.2,66.5 54.5,66.5 
				55.1,75.8 69.3,78.4 70,78.6 83.7,74.4 84.3,59.4 42.2,59.4 41.4,48.4 69.3,36.1 40.1,35.9 39,25.3 99.5,25.3 			"/>
		</g>
	</g>
</g>
<g>
	<g>
		<rect x="9.1" y="134.5" class="st11" width="124.7" height="24"/>
		<text transform="matrix(1 0 0 1 27.0498 146.8818)" class="st10 st7 st18">JAVASCRIPT</text>
		<rect x="15.1" y="126.4" class="st17" width="112" height="27.8"/>
	</g>
	<g>
		<polygon id="XMLID_17_" class="st4" points="26,107.6 16.6,2 120,2 110.6,107.6 68.2,119.3 		"/>
		<path d="M26.3,11l0,0.2h-0.2l8.1,90l34,9.6l34-9.6l8.1-90L26.3,11z M68.2,63.1L68.2,63.1L68.2,63.1L68.2,63.1L68.2,63.1z"/>
		<polygon class="st4" points="97.8,50.6 97.4,54.1 94.4,88.2 94.2,90.4 67.8,97.7 67.7,97.7 67.7,97.7 67.7,97.7 67.7,97.7 
			67.6,97.7 67.6,97.7 41.2,90.4 39.3,70.1 52.3,70.1 53.2,80.4 67.6,84.3 67.6,84.3 67.7,84.3 67.7,84.3 67.7,84.3 67.7,84.3 
			67.7,84.3 67.8,84.3 82.1,80.4 83.6,63.6 67.8,63.6 67.8,63.6 39.4,63.6 39.7,60.1 42.7,26 43.7,16.5 95.3,16.5 95.9,23.6 
			97.3,38.5 97.8,44.1 84.8,44.1 84.3,38.5 83.6,30.8 77,30.4 70.4,30 69.5,29.9 69.4,29.9 69.4,29.9 68,30 67.8,30 67.6,30 
			55.4,30.3 53.5,50.6 67.6,50.6 67.6,50.6 		"/>
	</g>
</g>
</svg>
