<?xml version="1.0" encoding="utf-8"?>
<!-- Generator: Adobe Illustrator 22.0.1, SVG Export Plug-In . SVG Version: 6.00 Build 0)  -->
<svg version="1.1" id="Camada_1" xmlns="http://www.w3.org/2000/svg" xmlns:xlink="http://www.w3.org/1999/xlink" x="0px" y="0px"
	 viewBox="0 0 464.7 164" style="enable-background:new 0 0 464.7 164;" xml:space="preserve">
<style type="text/css">
	.st0{display:none;stroke:#000000;stroke-miterlimit:10;}
	.st1{display:none;}
	.st2{display:inline;}
	.st3{fill:#C3C63B;}
	.st4{fill:none;}
	.st5{fill:#FFFFFF;}
	.st6{font-family:'NotoSans';}
	.st7{font-size:18.4236px;}
	.st8{fill:none;stroke:#FFFFFF;stroke-miterlimit:10;}
	.st9{display:inline;fill:#FFFFFF;}
	.st10{font-size:17.0816px;}
</style>
<rect x="-8.5" y="-8.5" class="st0" width="496" height="188"/>
<g class="st1">
	<g class="st2">
		<path class="st3" d="M7.5,0h117.2v117.7H7.5V0z"/>
		<path d="M49.6,60.8h10.6l-5.3-21L49.6,60.8z M15.2,9.2v101h101.3V9.2H15.2z M66,83.8l-3.9-13.7H47.8L44,83.8h-9.8L48,35.5v-5.3
			h13.1l15.7,53.6H66z M92,83.8H81.5V43.1H92V83.8z M86.8,38.2c-3,0-5.5-2.5-5.5-5.5c0-3.1,2.5-5.6,5.5-5.6c3,0,5.5,2.5,5.5,5.6
			C92.3,35.7,89.8,38.2,86.8,38.2z"/>
	</g>
	<g class="st2">
		<rect y="138.4" class="st4" width="133.3" height="25.6"/>
		<text transform="matrix(1 0 0 1 12.1338 152.4033)" class="st5 st6 st7">ILUSTRATOR</text>
		<rect x="6.4" y="131.2" class="st8" width="119.8" height="29.7"/>
	</g>
	<polygon class="st9" points="212.5,17.9 224.9,43.2 252.8,47.3 232.6,67 237.4,94.7 212.5,81.6 187.5,94.7 192.3,67 172.1,47.3 
		200,43.2 	"/>
	<polygon class="st9" points="317.6,17.9 330.1,43.2 358,47.3 337.8,67 342.6,94.7 317.6,81.6 292.7,94.7 297.4,67 277.2,47.3 
		305.1,43.2 	"/>
	<polygon class="st9" points="424.3,17.9 436.8,43.2 464.7,47.3 444.5,67 449.3,94.7 424.3,81.6 399.4,94.7 404.1,67 383.9,47.3 
		411.8,43.2 	"/>
</g>
<g>
	<g>
		<rect x="9.2" y="0" class="st3" width="115" height="115.6"/>
		<g>
			<rect x="16.7" y="8.5" width="100" height="99"/>
			<path class="st3" d="M38.5,31.1c0-0.3,0.7-0.6,1.1-0.6c3.1-0.1,7.6-0.2,12.4-0.2c13.3,0,18.5,7.5,18.5,17.1
				c0,12.5-8.8,17.9-19.7,17.9c-1.8,0-2.4-0.1-3.7-0.1v19c0,0.4-0.1,0.6-0.6,0.6h-7.3c-0.4,0-0.6-0.1-0.6-0.6V31.1L38.5,31.1z
				 M47,57.3c1.1,0.1,2,0.1,3.9,0.1c5.6,0,10.9-2,10.9-9.9c0-6.3-3.8-9.4-10.2-9.4c-1.9,0-3.7,0.1-4.6,0.1L47,57.3L47,57.3z
				 M88.2,51.4c-3.8,0-5.1,2-5.1,3.6c0,1.8,0.9,3,5.9,5.7c7.5,3.8,9.9,7.4,9.9,12.6c0,7.9-5.8,12.1-13.8,12.1
				c-4.2,0-7.8-0.9-9.8-2.1C75.1,83.3,75,83,75,82.6v-7.3c0-0.5,0.2-0.6,0.6-0.4c3,2,6.5,2.9,9.6,2.9c3.8,0,5.4-1.6,5.4-3.9
				c0-1.8-1.1-3.4-5.9-5.9c-6.8-3.4-9.6-6.8-9.6-12.4C75,49.3,79.9,44,88.2,44c4.1,0,7,0.6,8.6,1.4c0.4,0.2,0.5,0.6,0.5,1v6.8
				c0,0.4-0.2,0.6-0.7,0.5C94.5,52.3,91.4,51.4,88.2,51.4L88.2,51.4z"/>
		</g>
	</g>
	<g>
		<rect x="1.3" y="139.4" class="st4" width="130.9" height="25.1"/>
		<text transform="matrix(1 0 0 1 14.3193 152.3877)" class="st5 st6 st10">PHOTOSHOP</text>
		<rect x="7.6" y="130.9" class="st8" width="117.6" height="29.1"/>
	</g>
	<polygon class="st5" points="210.4,20.6 222.6,45.5 250,49.4 230.2,68.8 234.9,96 210.4,83.2 185.9,96 190.6,68.8 170.8,49.4 
		198.1,45.5 	"/>
	<polygon class="st5" points="313.6,20.6 325.9,45.5 353.3,49.4 333.4,68.8 338.1,96 313.6,83.2 289.1,96 293.8,68.8 274,49.4 
		301.4,45.5 	"/>
	<polygon class="st5" points="418.4,20.6 430.6,45.5 458,49.4 438.2,68.8 442.9,96 418.4,83.2 393.9,96 398.5,68.8 378.7,49.4 
		406.1,45.5 	"/>
</g>
</svg>
